<?xml version="1.0" encoding="utf-8"?><!DOCTYPE svg PUBLIC "-//W3C//DTD SVG 1.1//EN" "http://www.w3.org/Graphics/SVG/1.1/DTD/svg11.dtd"><svg version="1.1" id="Contours" xmlns="http://www.w3.org/2000/svg" xmlns:xlink="http://www.w3.org/1999/xlink" x="0px" y="0px" width="1453.550293px" height="1453.550293px" viewBox="-0.000000 -0.000000 1453.550293 1405.649658" enable-background="new 0 0 1453.550293 1453.550293" xml:space="preserve" stroke="black" fill="none" stroke-linecap='round' stroke-linejoin='round'><path class="selected"  fill="#166534" opacity="1.000000" stroke="none" 
 	d="
M228.405666 1190.232222 C307.102050 1230.772220 393.648854 1253.958393 480.719311 1269.938002 C721.781836 1314.179014 978.965573 1303.031346 1200.495787 1198.184924 C1241.036321 1178.997791 1280.836996 1156.281651 1311.395802 1123.451174 C1341.954609 1090.620696 1362.471093 1046.242387 1358.337967 1001.581463 C1354.246358 957.369213 1324.783107 916.402110 1284.170508 898.455505 C1294.240531 891.002418 1308.446772 896.387493 1319.424567 902.424208 C1360.808562 925.181399 1399.002405 955.552373 1424.351472 995.401455 C1449.700538 1035.250537 1461.055736 1085.382554 1448.257570 1130.843873 C1433.031245 1184.930442 1387.248484 1224.617798 1340.281570 1255.461060 C1150.382326 1380.168247 913.298622 1410.839924 686.188196 1404.969704 C510.444722 1400.427189 331.800610 1374.955720 174.226078 1297.002722 C125.690139 1272.991723 78.604739 1243.360018 44.666247 1201.164708 C10.727754 1158.969398 -8.582901 1102.410409 3.734028 1049.679406 C20.234314 979.038665 86.467450 932.453527 150.343761 898.070531 C101.217153 957.927682 89.389318 1050.007385 133.013979 1113.985443 C156.189640 1147.973878 191.835032 1171.393067 228.405665 1190.232222 z"/><path class="selected"  fill="#166534" opacity="1.000000" stroke="none" 
 	d="
M1030.319495 835.078234 C1069.013665 847.996386 1107.936719 863.216396 1138.952739 889.714018 C1169.968760 916.211640 1192.155213 956.083932 1187.966080 996.661865 C1184.974083 1025.643857 1168.898727 1052.147668 1147.806207 1072.247758 C1126.713687 1092.347849 1100.820251 1106.676412 1074.433717 1119.031932 C932.553205 1185.467622 770.539355 1199.644489 614.689374 1183.689470 C516.213045 1173.608033 416.343197 1150.836703 334.343179 1095.382039 C301.556280 1073.209038 270.342365 1042.928030 264.130987 1003.837858 C258.332225 967.344414 276.140847 930.294087 302.091396 903.988839 C328.041945 877.683590 361.396092 860.194057 394.169610 843.126730 C405.205615 837.379556 419.248044 831.788416 429.246924 839.194213 C381.788728 863.345538 364.182288 931.993989 394.158678 976.005155 C407.442776 995.508795 427.538456 1009.303004 448.194767 1020.712475 C533.912895 1068.058704 634.666385 1081.020193 732.583736 1079.813890 C824.714207 1078.678881 918.722888 1065.119272 1000.301140 1022.290536 C1023.347775 1010.191009 1045.823878 995.259620 1060.366022 973.670920 C1089.869321 929.871473 1075.312590 862.727060 1030.319495 835.078234 z"/><path class="selected"  fill="#166534" opacity="1.000000" stroke="none" 
 	d="
M918.597328 864.320353 C922.317952 876.766259 919.057534 890.566795 912.141332 901.562694 C905.225130 912.558592 894.980397 921.074619 884.157849 928.259052 C845.940170 953.629449 799.521320 964.080999 753.736641 966.911405 C701.292185 970.153518 647.965547 963.888093 598.697360 945.623975 C579.293853 938.430938 559.971745 928.958949 546.586572 913.176903 C533.201398 897.394856 527.049236 874.034285 536.190407 855.468864 C541.447034 844.792823 550.912270 836.929714 559.765054 828.977471 C577.610106 812.947691 594.353381 794.685604 603.050614 772.330340 C614.382109 743.203990 610.949071 710.163115 620.818291 680.509355 C635.591305 636.121277 682.063780 604.770275 728.806049 606.694779 C775.548319 608.619282 818.904036 643.011854 832.391188 687.807392 C840.038519 713.206830 838.846591 740.736634 847.485487 765.816156 C856.593415 792.257320 875.869461 813.845218 895.815224 833.447668 C905.041987 842.515617 914.891979 851.925546 918.597328 864.320352 M730.559641 683.491721 C733.794133 672.272007 734.833597 659.309077 728.189844 649.706761 C721.068205 639.413749 706.581558 636.084708 694.528028 639.457577 C682.474498 642.830446 672.653785 651.699003 665.046634 661.638574 C653.104424 677.242374 645.431351 697.300302 649.180203 716.588668 C649.834056 719.952828 650.862750 723.328787 652.918443 726.070908 C656.358792 730.660043 662.192672 732.833200 667.870823 733.642373 C682.332682 735.703282 697.293085 730.166079 708.278081 720.536824 C719.263077 710.907569 726.513153 697.528056 730.559638 683.491722 z"/><path class="selected"  fill="#166534" opacity="1.000000" stroke="none" 
 	d="
M870.955564 335.848535 C858.528208 360.745424 845.201220 385.854358 825.058768 405.052688 C802.481104 426.572086 771.848294 439.434126 740.675636 440.483301 C709.502978 441.532477 678.074678 430.759222 654.101194 410.806592 C629.750043 390.539637 613.785765 362.117422 599.695831 333.741346 C577.556602 289.154591 558.423158 242.012485 554.433558 192.391851 C550.443959 142.771217 563.344298 89.955721 598.048629 54.266317 C605.259382 46.850878 613.279396 40.277549 621.279936 33.722012 C631.471047 25.371556 643.099133 16.540549 656.234872 17.560946 C655.683566 9.981510 665.231202 6.326364 672.753081 5.243249 C693.314544 2.282495 714.055221 0.566843 734.823708 0.108817 C756.264852 -0.364044 777.956742 0.536243 798.647417 6.179130 C819.338093 11.822018 839.110245 22.535718 852.751738 39.084311 C863.160765 39.091884 870.673902 48.676578 876.443394 57.340346 C889.031523 76.243344 901.484234 95.515320 909.280278 116.846190 C922.375034 152.674939 921.492876 192.479412 912.805373 229.623714 C904.117870 266.768016 887.992163 301.717519 870.955565 335.848535 M749.278517 62.792483 C744.819952 61.742509 742.264834 55.926320 744.507556 51.932394 C745.356168 50.421156 743.354054 48.932374 741.713711 48.372680 C706.985932 36.523440 666.376886 43.806658 637.931473 66.985992 C609.486060 90.165326 594.153366 128.467393 598.746576 164.872412 C600.001021 174.814937 603.225375 185.448003 611.530387 191.056408 C619.650332 196.539837 630.777163 195.667819 639.592088 191.390134 C648.407014 187.112449 655.421845 179.940436 662.245484 172.909117 C684.366517 150.114820 706.487551 127.320525 728.608584 104.526230 C738.058132 94.789081 748.234583 81.174207 742.223746 69.009674 C744.575336 66.937277 746.926927 64.864880 749.278517 62.792483 z"/></svg>